# xmcd
#
# Track frame offsets: 
#        150
#        14885
#        26792
#        44622
#        55102
#        71352
#        83240
#        99612
#        112797
#        126562
#        136990
#        149322
#
# Disc length: 2316 seconds
#
# Revision: 0
# Processed by: cddbd v1.4PL0 Copyright (c) Steve Scherf et al.
# Submitted via: ExactAudioCopy v0.90b4
#
DISCID=ae090a0c
DTITLE=Ricky Skaggs - Collection - Disc 2
DYEAR=1900
DGENRE=Country
TTITLE0=Heartbroke
TTITLE1=Don't Think I'll Cry
TTITLE2=You've Got A Lover
TTITLE3=I'm Tired
TTITLE4=Thanks Again
TTITLE5=He Was On To Somethin' (So He Made You)
TTITLE6=Your Old Love Letters
TTITLE7=Kentucky Thunder
TTITLE8=When I Love
TTITLE9=I Don't Care
TTITLE10=My Father's Son
TTITLE11=One Way Rider
EXTD=
EXTT0=
EXTT1=
EXTT2=
EXTT3=
EXTT4=
EXTT5=
EXTT6=
EXTT7=
EXTT8=
EXTT9=
EXTT10=
EXTT11=
PLAYORDER=
